<svg id="Layer_3" enable-background="new 0 0 64 64" height="512" viewBox="0 0 64 64" width="512" xmlns="http://www.w3.org/2000/svg"><path d="m60.78 14.604-2.744-2.402c-2.342-2.049-5.025-3.586-7.976-4.57-.424-.141-.813-.341-1.185-.565 1.205-1.05 2.516-1.987 3.921-2.795 4.132 1.889 7.184 5.724 7.984 10.332zm-10.416-11.178c-1.063.704-2.068 1.48-3.013 2.321-.631-.773-1.072-1.694-1.251-2.701.299-.02.596-.046.9-.046 1.161 0 2.284.158 3.364.426zm-7.48 5.898-5.303-2.651c1.81-1.652 4.044-2.845 6.529-3.369.238 1.435.877 2.743 1.796 3.824-.801.827-1.547 1.702-2.235 2.62-.262-.143-.52-.291-.787-.424zm-6.748-1.138 5.853 2.927c.18.09.353.191.53.285-.791 1.235-1.474 2.537-2.057 3.885-.548-.184-1.133-.283-1.739-.283-2.061 0-3.913 1.145-4.835 2.988l-.676 1.352c-.129-.763-.212-1.541-.212-2.34 0-3.339 1.178-6.405 3.136-8.814zm15.273 21.164c-3.578-2.557-6.245-6.285-7.51-10.498-.311-1.038-.915-1.91-1.692-2.569.569-1.349 1.249-2.647 2.041-3.875 5.624 3.625 9.521 9.478 10.658 16.135-.82.564-1.704 1.039-2.638 1.42zm-17.394-7.143 1.662-3.324c.58-1.162 1.748-1.883 3.046-1.883.351 0 .689.057 1.01.156-.825 2.376-1.336 4.875-1.464 7.437l-.16 3.212c-1.798-1.481-3.212-3.405-4.094-5.598zm6.03 6.926.222-4.44c.109-2.178.507-4.31 1.163-6.347.241.318.433.679.554 1.081 1.348 4.49 4.152 8.468 7.905 11.27-.934.196-1.899.303-2.889.303-2.533 0-4.903-.686-6.955-1.867zm16.626-2.035c-1.451-6.724-5.526-12.598-11.268-16.326.611-.801 1.269-1.566 1.973-2.29.621.436 1.303.798 2.05 1.047 2.697.899 5.15 2.305 7.292 4.177l4.259 3.727c-.116 3.795-1.742 7.209-4.306 9.665z"/><path d="m40.586 41-2.086 2.086-2.086-2.086zm-14.937 10.765 2.351-2.351 2.086 2.086-3.741 3.741c-.191-1.167-.419-2.327-.696-3.476zm9.351-5.179-2.086-2.086 2.086-2.086 2.086 2.086zm3.5-.672 2.086 2.086-2.086 2.086-2.086-2.086zm-4.914 2.086-2.086 2.086-2.086-2.086 2.086-2.086zm-5.586-1.414-2.086-2.086 2.086-2.086 2.086 2.086zm-1.414 1.414-1.537 1.537c-.466-1.596-1.007-3.169-1.636-4.709zm4.914 4.914 2.086 2.086-2.086 2.086-2.086-2.086zm1.414-1.414 2.086-2.086 2.086 2.086-2.086 2.086zm5.586 1.414 2.086 2.086-2.086 2.086-2.086-2.086zm3.5.672-2.086-2.086 2.086-2.086 2.086 2.086zm1.414-5.586 2.086-2.086.483.483c-.381 1.035-.723 2.082-1.032 3.14zm-1.414-1.414-2.086-2.086 2.086-2.086 2.086 2.086zm-8.414-5.586-2.086 2.086-2.086-2.086zm-7 0-2.086 2.086-2.086-2.086zm1.414 19.586-1.146-1.146c-.044-.585-.101-1.169-.166-1.752l.019.019 1.293-1.293 2.086 2.086zm7 0-2.086-2.086 2.086-2.086 2.086 2.086zm7 0-2.086-2.086 3.832-3.832c-.278 1.578-.479 3.17-.599 4.771zm4.783-16.217-3.369-3.369h4.942c-.568 1.103-1.093 2.227-1.573 3.369zm4.217-5.369h-32v-2h32z"/><path d="m17 37h-8v-34h-6v40h2v19h2v-19h2v-4h8z"/></svg>