<?xml version="1.0" encoding="iso-8859-1"?>
<!-- Generator: Adobe Illustrator 19.0.0, SVG Export Plug-In . SVG Version: 6.00 Build 0)  -->
<svg version="1.1" id="Capa_1" xmlns="http://www.w3.org/2000/svg" xmlns:xlink="http://www.w3.org/1999/xlink" x="0px" y="0px"
	 viewBox="0 0 512 512" style="enable-background:new 0 0 512 512;" xml:space="preserve">
<g>
	<g>
		<path d="M427.807,199.068c-17.219,0-31.227-14.008-31.227-31.227V0h-89.846v95.252c0,27.975-22.76,50.733-50.734,50.733
			s-50.734-22.759-50.734-50.733V0H115.42v167.842c0,17.219-14.008,31.227-31.227,31.227H62.25V512h387.5V199.068H427.807z
			 M419.75,482H92.25v-29.764h327.5V482z M419.75,422.236H92.25V228.541c29.967-3.956,53.17-29.669,53.17-60.699V30h29.846v65.252
			c0,44.517,36.217,80.733,80.734,80.733c44.518,0,80.734-36.217,80.734-80.733V30h29.846v137.842
			c0,31.03,23.203,56.743,53.17,60.699V422.236z"/>
	</g>
</g>
<g>
	<g>
		<polygon points="271,342.317 271,232.496 224.887,232.496 224.887,262.496 241,262.496 241,342.317 220.164,342.317 
			220.164,372.317 291.837,372.317 291.837,342.317 		"/>
	</g>
</g>
<g>
</g>
<g>
</g>
<g>
</g>
<g>
</g>
<g>
</g>
<g>
</g>
<g>
</g>
<g>
</g>
<g>
</g>
<g>
</g>
<g>
</g>
<g>
</g>
<g>
</g>
<g>
</g>
<g>
</g>
</svg>
